<svg width="176" height="17" viewBox="0 0 176 17" fill="none" xmlns="http://www.w3.org/2000/svg">
<path d="M8.28 2.6C7.38667 2.6 6.60667 2.84 5.94 3.32C5.27333 3.8 4.76 4.48 4.4 5.36C4.05333 6.22667 3.88 7.27333 3.88 8.5C3.88 9.72667 4.06 10.78 4.42 11.66C4.78 12.54 5.28667 13.22 5.94 13.7C6.60667 14.18 7.38667 14.42 8.28 14.42C8.82667 14.42 9.34 14.3733 9.82 14.28C10.3133 14.1867 10.7533 14.0533 11.14 13.88V10.9C11.14 10.66 11.1067 10.5067 11.04 10.44C10.9733 10.3733 10.8467 10.32 10.66 10.28L8.62 9.92C8.5 9.90667 8.44 9.83333 8.44 9.7V8.98C8.44 8.84667 8.50667 8.78 8.64 8.78H15.5C15.6333 8.78 15.7 8.84667 15.7 8.98V9.7C15.7 9.83333 15.64 9.92 15.52 9.96L14.76 10.2C14.5333 10.2667 14.3867 10.3467 14.32 10.44C14.2667 10.5333 14.24 10.6733 14.24 10.86V13.22L14.38 14.4C14.3933 14.5333 14.3867 14.6267 14.36 14.68C14.3333 14.72 14.2667 14.7733 14.16 14.84C13.48 15.28 12.6333 15.6267 11.62 15.88C10.6067 16.1333 9.50667 16.26 8.32 16.26C6.72 16.26 5.30667 15.9333 4.08 15.28C2.86667 14.6267 1.92 13.72 1.24 12.56C0.573333 11.3867 0.24 10.0333 0.24 8.5C0.24 6.96667 0.573333 5.62 1.24 4.46C1.92 3.3 2.86667 2.39333 4.08 1.74C5.30667 1.08667 6.72 0.76 8.32 0.76C9.16 0.76 9.9 0.833333 10.54 0.979999C11.1933 1.11333 11.7067 1.24667 12.08 1.38L12.86 1.52C13.06 1.56 13.2067 1.61333 13.3 1.68C13.3933 1.73333 13.46 1.84 13.5 2C13.54 2.16 13.5667 2.41333 13.58 2.76L13.8 6.12C13.8133 6.24 13.7533 6.31333 13.62 6.34L12.84 6.44C12.7067 6.46667 12.62 6.41333 12.58 6.28L11.78 4.4C11.6867 4.18667 11.6 4.02667 11.52 3.92C11.4533 3.81333 11.3533 3.69333 11.22 3.56C10.8467 3.24 10.4067 3 9.9 2.84C9.40667 2.68 8.86667 2.6 8.28 2.6ZM21.1684 9.68V8.08H22.8284C23.6551 8.08 24.2951 7.84 24.7484 7.36C25.2018 6.86667 25.4284 6.16667 25.4284 5.26C25.4284 4.38 25.2084 3.72 24.7684 3.28C24.3284 2.82667 23.6818 2.6 22.8284 2.6H21.1684V1.02H22.8284C24.7884 1.02 26.2684 1.38 27.2684 2.1C28.2684 2.80667 28.7684 3.86 28.7684 5.26C28.7684 6.67333 28.2551 7.76667 27.2284 8.54C26.2151 9.3 24.7484 9.68 22.8284 9.68H21.1684ZM17.7884 16V1.02H21.1684V16H17.7884ZM27.2484 16C27.0484 16 26.8884 15.9867 26.7684 15.96C26.6484 15.92 26.5351 15.8333 26.4284 15.7C26.3218 15.5667 26.1684 15.3533 25.9684 15.06L23.1484 10.78C22.9351 10.4467 22.7484 10.2067 22.5884 10.06C22.4284 9.9 22.2818 9.8 22.1484 9.76C22.0151 9.70667 21.8684 9.68 21.7084 9.68L23.1284 9.02C23.6751 9.04667 24.1551 9.14667 24.5684 9.32C24.9818 9.48 25.3684 9.72 25.7284 10.04C26.1018 10.3467 26.4818 10.7533 26.8684 11.26L29.1084 14.1C29.2684 14.2867 29.4218 14.4333 29.5684 14.54C29.7151 14.6333 29.8751 14.7133 30.0484 14.78L30.9484 15.1C31.0684 15.1533 31.1284 15.2467 31.1284 15.38V15.8C31.1284 15.9333 31.0618 16 30.9284 16H27.2484ZM15.8884 16C15.7551 16 15.6884 15.9333 15.6884 15.8V15.36C15.6884 15.24 15.7551 15.16 15.8884 15.12L17.2884 14.74C17.5151 14.66 17.6551 14.58 17.7084 14.5C17.7618 14.42 17.7884 14.28 17.7884 14.08V11.86H21.1684V14.04C21.1684 14.28 21.2018 14.44 21.2684 14.52C21.3351 14.6 21.4551 14.6667 21.6284 14.72L23.1284 15.12C23.2484 15.1733 23.3084 15.26 23.3084 15.38V15.8C23.3084 15.9333 23.2418 16 23.1084 16H15.8884ZM15.6884 1.22C15.6884 1.08667 15.7551 1.02 15.8884 1.02H21.1684V5.16H17.7884V2.94C17.7884 2.74 17.7618 2.6 17.7084 2.52C17.6551 2.42667 17.5151 2.34667 17.2884 2.28L15.8884 1.9C15.7551 1.86 15.6884 1.78 15.6884 1.66V1.22ZM30.3655 16C30.2321 16 30.1655 15.9333 30.1655 15.8V15.36C30.1655 15.2267 30.2255 15.14 30.3455 15.1L31.1655 14.86C31.3921 14.78 31.5655 14.68 31.6855 14.56C31.8055 14.44 31.9055 14.2933 31.9855 14.12L37.5055 1.36C37.5455 1.24 37.6321 1.17333 37.7655 1.16L39.2055 0.84C39.3388 0.813333 39.4188 0.866666 39.4455 0.999999L39.7255 2.14L45.3055 14.1C45.3988 14.3 45.5121 14.46 45.6455 14.58C45.7788 14.7 45.9321 14.7867 46.1055 14.84L46.8855 15.1C47.0055 15.1533 47.0655 15.2467 47.0655 15.38V15.8C47.0655 15.9333 46.9988 16 46.8655 16H39.6455C39.5255 16 39.4655 15.9333 39.4655 15.8V15.36C39.4655 15.2533 39.5255 15.1733 39.6455 15.12L40.7855 14.84C41.1855 14.7333 41.4188 14.5933 41.4855 14.42C41.5521 14.2467 41.5121 14 41.3655 13.68L36.8855 3.62L38.7855 2.48L34.1255 13.62C33.9655 14.0067 33.9321 14.28 34.0255 14.44C34.1321 14.6 34.3521 14.72 34.6855 14.8L35.9855 15.12C36.1188 15.16 36.1855 15.2467 36.1855 15.38V15.8C36.1855 15.9333 36.1188 16 35.9855 16H30.3655ZM34.3855 9.86C35.6655 9.94 36.9721 9.98 38.3055 9.98C39.6521 9.96667 40.9588 9.92667 42.2255 9.86V11.44C40.9588 11.52 39.6521 11.56 38.3055 11.56C36.9721 11.56 35.6655 11.5267 34.3855 11.46V9.86ZM53.8552 16.26C52.2552 16.26 50.8418 15.9333 49.6152 15.28C48.4018 14.6267 47.4552 13.72 46.7752 12.56C46.1085 11.3867 45.7752 10.0333 45.7752 8.5C45.7752 6.96667 46.1085 5.62 46.7752 4.46C47.4552 3.3 48.4018 2.39333 49.6152 1.74C50.8418 1.08667 52.2552 0.76 53.8552 0.76C54.6552 0.76 55.3685 0.833333 55.9952 0.979999C56.6218 1.12667 57.1152 1.26 57.4752 1.38L58.3952 1.54C58.5952 1.56667 58.7418 1.61333 58.8352 1.68C58.9285 1.73333 58.9952 1.84 59.0352 2C59.0752 2.16 59.1018 2.41333 59.1152 2.76L59.3352 6.12C59.3485 6.24 59.2885 6.31333 59.1552 6.34L58.3752 6.44C58.2418 6.46667 58.1552 6.41333 58.1152 6.28L57.3352 4.4C57.2418 4.18667 57.1618 4.02667 57.0952 3.92C57.0285 3.81333 56.9285 3.69333 56.7952 3.56C56.4218 3.24 55.9952 3 55.5152 2.84C55.0485 2.68 54.5285 2.6 53.9552 2.6C53.0218 2.6 52.2152 2.83333 51.5352 3.3C50.8552 3.76667 50.3352 4.44667 49.9752 5.34C49.6152 6.22 49.4352 7.27333 49.4352 8.5C49.4352 9.72667 49.6085 10.78 49.9552 11.66C50.3152 12.54 50.8218 13.22 51.4752 13.7C52.1418 14.18 52.9218 14.42 53.8152 14.42C54.4152 14.42 54.9552 14.3467 55.4352 14.2C55.9285 14.04 56.3685 13.8067 56.7552 13.5C56.9285 13.3133 57.0485 13.1733 57.1152 13.08C57.1818 12.9733 57.2485 12.84 57.3152 12.68L58.1152 10.74C58.1552 10.6067 58.2418 10.5533 58.3752 10.58L59.1552 10.68C59.2885 10.7067 59.3485 10.78 59.3352 10.9L59.0952 14.68C59.0818 14.88 59.0485 15.0333 58.9952 15.14C58.9552 15.2333 58.8552 15.3133 58.6952 15.38C58.5485 15.4333 58.3018 15.4933 57.9552 15.56L57.4752 15.64C57.1152 15.76 56.6218 15.8933 55.9952 16.04C55.3685 16.1867 54.6552 16.26 53.8552 16.26ZM62.5423 16V1.02H65.9223V13.8C65.9223 14.04 65.969 14.2067 66.0623 14.3C66.1557 14.38 66.3023 14.42 66.5023 14.42H71.0223C71.2623 14.42 71.449 14.38 71.5823 14.3C71.729 14.22 71.8623 14.1 71.9823 13.94L73.2223 12.08C73.2757 11.9733 73.3757 11.94 73.5223 11.98L74.1223 12.14C74.2423 12.18 74.2957 12.2667 74.2823 12.4L73.8023 15.46C73.7757 15.6467 73.729 15.7933 73.6623 15.9C73.609 15.9933 73.5023 16.0467 73.3423 16.06C73.1957 16.0733 72.949 16.0733 72.6023 16.06L71.3823 16H62.5423ZM71.3823 10.98C71.2623 10.98 71.169 10.92 71.1023 10.8L70.7223 9.8C70.629 9.58667 70.509 9.44667 70.3623 9.38C70.229 9.3 70.0623 9.26 69.8623 9.26H65.9223V7.66H69.8223C70.0623 7.66 70.249 7.62 70.3823 7.54C70.5157 7.44667 70.6223 7.31333 70.7023 7.14L71.1023 6.26C71.169 6.14 71.269 6.08 71.4023 6.08H71.9423C72.0757 6.08 72.1423 6.14667 72.1423 6.28V10.8C72.1423 10.92 72.0757 10.98 71.9423 10.98H71.3823ZM73.0823 4.96C72.9623 4.98667 72.8623 4.94667 72.7823 4.84L71.8823 3.14C71.7623 2.94 71.629 2.8 71.4823 2.72C71.349 2.64 71.189 2.6 71.0023 2.6H65.9223V1.02H71.4623L73.1023 0.859999C73.3157 0.846666 73.4623 0.859999 73.5423 0.899999C73.6357 0.926666 73.6957 1.01333 73.7223 1.16C73.7623 1.30667 73.7823 1.56 73.7823 1.92L73.8623 4.64C73.8623 4.77333 73.7957 4.85333 73.6623 4.88L73.0823 4.96ZM60.6423 16C60.509 16 60.4423 15.9333 60.4423 15.8V15.36C60.4423 15.24 60.509 15.16 60.6423 15.12L62.0423 14.74C62.269 14.66 62.409 14.58 62.4623 14.5C62.5157 14.42 62.5423 14.28 62.5423 14.08V11.86H65.9223V16H60.6423ZM60.4423 1.22C60.4423 1.08667 60.509 1.02 60.6423 1.02H65.9223V5.16H62.5423V2.94C62.5423 2.74 62.5157 2.6 62.4623 2.52C62.409 2.42667 62.269 2.34667 62.0423 2.28L60.6423 1.9C60.509 1.86 60.4423 1.78 60.4423 1.66V1.22Z" fill="#3481C9"/>
<path d="M87.8669 16.26C86.2669 16.26 84.8535 15.9333 83.6269 15.28C82.4135 14.6267 81.4669 13.72 80.7869 12.56C80.1202 11.3867 79.7869 10.0333 79.7869 8.5C79.7869 6.96667 80.1202 5.62 80.7869 4.46C81.4669 3.3 82.4135 2.39333 83.6269 1.74C84.8535 1.08667 86.2669 0.76 87.8669 0.76C88.6669 0.76 89.3802 0.833333 90.0069 0.979999C90.6335 1.12667 91.1269 1.26 91.4869 1.38L92.4069 1.54C92.6069 1.56667 92.7535 1.61333 92.8469 1.68C92.9402 1.73333 93.0069 1.84 93.0469 2C93.0869 2.16 93.1135 2.41333 93.1269 2.76L93.3469 6.12C93.3602 6.24 93.3002 6.31333 93.1669 6.34L92.3869 6.44C92.2535 6.46667 92.1669 6.41333 92.1269 6.28L91.3469 4.4C91.2535 4.18667 91.1735 4.02667 91.1069 3.92C91.0402 3.81333 90.9402 3.69333 90.8069 3.56C90.4335 3.24 90.0069 3 89.5269 2.84C89.0602 2.68 88.5402 2.6 87.9669 2.6C87.0335 2.6 86.2269 2.83333 85.5469 3.3C84.8669 3.76667 84.3469 4.44667 83.9869 5.34C83.6269 6.22 83.4469 7.27333 83.4469 8.5C83.4469 9.72667 83.6202 10.78 83.9669 11.66C84.3269 12.54 84.8335 13.22 85.4869 13.7C86.1535 14.18 86.9335 14.42 87.8269 14.42C88.4269 14.42 88.9669 14.3467 89.4469 14.2C89.9402 14.04 90.3802 13.8067 90.7669 13.5C90.9402 13.3133 91.0602 13.1733 91.1269 13.08C91.1935 12.9733 91.2602 12.84 91.3269 12.68L92.1269 10.74C92.1669 10.6067 92.2535 10.5533 92.3869 10.58L93.1669 10.68C93.3002 10.7067 93.3602 10.78 93.3469 10.9L93.1069 14.68C93.0935 14.88 93.0602 15.0333 93.0069 15.14C92.9669 15.2333 92.8669 15.3133 92.7069 15.38C92.5602 15.4333 92.3135 15.4933 91.9669 15.56L91.4869 15.64C91.1269 15.76 90.6335 15.8933 90.0069 16.04C89.3802 16.1867 88.6669 16.26 87.8669 16.26ZM96.5541 16V1.02H99.9341V16H96.5541ZM96.5541 7.36C97.5941 7.45333 98.6807 7.52667 99.8141 7.58C100.947 7.63333 102.087 7.66 103.234 7.66C104.381 7.66 105.521 7.63333 106.654 7.58C107.787 7.52667 108.874 7.45333 109.914 7.36V8.96C108.874 9.05333 107.787 9.12667 106.654 9.18C105.521 9.23333 104.381 9.26 103.234 9.26C102.087 9.26 100.947 9.23333 99.8141 9.18C98.6807 9.12667 97.5941 9.05333 96.5541 8.96V7.36ZM106.554 16V1.02H109.914V16H106.554ZM104.634 16C104.514 16 104.454 15.9333 104.454 15.8V15.36C104.454 15.24 104.514 15.16 104.634 15.12L106.034 14.74C106.261 14.66 106.401 14.58 106.454 14.5C106.521 14.42 106.554 14.28 106.554 14.08V11.86H109.914V14.04C109.914 14.28 109.947 14.44 110.014 14.52C110.081 14.6 110.201 14.6667 110.374 14.72L111.874 15.12C111.994 15.1733 112.054 15.26 112.054 15.38V15.8C112.054 15.9333 111.987 16 111.854 16H104.634ZM94.6541 16C94.5207 16 94.4541 15.9333 94.4541 15.8V15.36C94.4541 15.24 94.5207 15.16 94.6541 15.12L96.0541 14.74C96.2807 14.66 96.4207 14.58 96.4741 14.5C96.5274 14.42 96.5541 14.28 96.5541 14.08V11.86H99.9341V14.04C99.9341 14.28 99.9674 14.44 100.034 14.52C100.101 14.6 100.221 14.6667 100.394 14.72L101.894 15.12C102.014 15.1733 102.074 15.26 102.074 15.38V15.8C102.074 15.9333 102.007 16 101.874 16H94.6541ZM104.454 1.22C104.454 1.08667 104.514 1.02 104.634 1.02H111.854C111.987 1.02 112.054 1.08667 112.054 1.22V1.64C112.054 1.76 111.994 1.84667 111.874 1.9L110.374 2.3C110.201 2.35333 110.081 2.42 110.014 2.5C109.947 2.58 109.914 2.74 109.914 2.98V5.16H106.554V2.94C106.554 2.74 106.521 2.6 106.454 2.52C106.401 2.42667 106.261 2.34667 106.034 2.28L104.634 1.9C104.514 1.86 104.454 1.78 104.454 1.66V1.22ZM94.4541 1.22C94.4541 1.08667 94.5207 1.02 94.6541 1.02H101.874C102.007 1.02 102.074 1.08667 102.074 1.22V1.64C102.074 1.76 102.014 1.84667 101.894 1.9L100.394 2.3C100.221 2.35333 100.101 2.42 100.034 2.5C99.9674 2.58 99.9341 2.74 99.9341 2.98V5.16H96.5541V2.94C96.5541 2.74 96.5274 2.6 96.4741 2.52C96.4207 2.42667 96.2807 2.34667 96.0541 2.28L94.6541 1.9C94.5207 1.86 94.4541 1.78 94.4541 1.66V1.22ZM126.945 10.48C126.945 12.32 126.385 13.7467 125.265 14.76C124.145 15.76 122.552 16.26 120.485 16.26C118.472 16.26 116.912 15.8 115.805 14.88C114.699 13.96 114.145 12.6533 114.145 10.96V1.02H117.525V11.26C117.525 12.2333 117.832 13.0067 118.445 13.58C119.072 14.14 119.932 14.42 121.025 14.42C122.132 14.42 122.999 14.1 123.625 13.46C124.265 12.8067 124.585 11.9133 124.585 10.78V1.02H126.945V10.48ZM112.045 1.22C112.045 1.08667 112.112 1.02 112.245 1.02H119.465C119.599 1.02 119.665 1.08667 119.665 1.22V1.64C119.665 1.76 119.605 1.84667 119.485 1.9L117.985 2.3C117.812 2.35333 117.692 2.42 117.625 2.5C117.559 2.58 117.525 2.74 117.525 2.98V5.16H114.145V2.94C114.145 2.74 114.119 2.6 114.065 2.52C114.012 2.42667 113.872 2.34667 113.645 2.28L112.245 1.9C112.112 1.86 112.045 1.78 112.045 1.66V1.22ZM122.465 1.22C122.465 1.08667 122.532 1.02 122.665 1.02H128.905C129.039 1.02 129.105 1.08667 129.105 1.22V1.64C129.105 1.76 129.045 1.84667 128.925 1.9L127.425 2.3C127.239 2.35333 127.112 2.42 127.045 2.5C126.979 2.58 126.945 2.74 126.945 2.98V5.16H124.585V2.94C124.585 2.74 124.559 2.6 124.505 2.52C124.452 2.42667 124.312 2.34667 124.085 2.28L122.665 1.9C122.532 1.86 122.465 1.78 122.465 1.66V1.22ZM134.516 9.68V8.08H136.176C137.003 8.08 137.643 7.84 138.096 7.36C138.549 6.86667 138.776 6.16667 138.776 5.26C138.776 4.38 138.556 3.72 138.116 3.28C137.676 2.82667 137.029 2.6 136.176 2.6H134.516V1.02H136.176C138.136 1.02 139.616 1.38 140.616 2.1C141.616 2.80667 142.116 3.86 142.116 5.26C142.116 6.67333 141.603 7.76667 140.576 8.54C139.563 9.3 138.096 9.68 136.176 9.68H134.516ZM131.136 16V1.02H134.516V16H131.136ZM140.596 16C140.396 16 140.236 15.9867 140.116 15.96C139.996 15.92 139.883 15.8333 139.776 15.7C139.669 15.5667 139.516 15.3533 139.316 15.06L136.496 10.78C136.283 10.4467 136.096 10.2067 135.936 10.06C135.776 9.9 135.629 9.8 135.496 9.76C135.363 9.70667 135.216 9.68 135.056 9.68L136.476 9.02C137.023 9.04667 137.503 9.14667 137.916 9.32C138.329 9.48 138.716 9.72 139.076 10.04C139.449 10.3467 139.829 10.7533 140.216 11.26L142.456 14.1C142.616 14.2867 142.769 14.4333 142.916 14.54C143.063 14.6333 143.223 14.7133 143.396 14.78L144.296 15.1C144.416 15.1533 144.476 15.2467 144.476 15.38V15.8C144.476 15.9333 144.409 16 144.276 16H140.596ZM129.236 16C129.103 16 129.036 15.9333 129.036 15.8V15.36C129.036 15.24 129.103 15.16 129.236 15.12L130.636 14.74C130.863 14.66 131.003 14.58 131.056 14.5C131.109 14.42 131.136 14.28 131.136 14.08V11.86H134.516V14.04C134.516 14.28 134.549 14.44 134.616 14.52C134.683 14.6 134.803 14.6667 134.976 14.72L136.476 15.12C136.596 15.1733 136.656 15.26 136.656 15.38V15.8C136.656 15.9333 136.589 16 136.456 16H129.236ZM129.036 1.22C129.036 1.08667 129.103 1.02 129.236 1.02H134.516V5.16H131.136V2.94C131.136 2.74 131.109 2.6 131.056 2.52C131.003 2.42667 130.863 2.34667 130.636 2.28L129.236 1.9C129.103 1.86 129.036 1.78 129.036 1.66V1.22ZM151.679 16.26C150.079 16.26 148.666 15.9333 147.439 15.28C146.226 14.6267 145.279 13.72 144.599 12.56C143.933 11.3867 143.599 10.0333 143.599 8.5C143.599 6.96667 143.933 5.62 144.599 4.46C145.279 3.3 146.226 2.39333 147.439 1.74C148.666 1.08667 150.079 0.76 151.679 0.76C152.479 0.76 153.193 0.833333 153.819 0.979999C154.446 1.12667 154.939 1.26 155.299 1.38L156.219 1.54C156.419 1.56667 156.566 1.61333 156.659 1.68C156.753 1.73333 156.819 1.84 156.859 2C156.899 2.16 156.926 2.41333 156.939 2.76L157.159 6.12C157.173 6.24 157.113 6.31333 156.979 6.34L156.199 6.44C156.066 6.46667 155.979 6.41333 155.939 6.28L155.159 4.4C155.066 4.18667 154.986 4.02667 154.919 3.92C154.853 3.81333 154.753 3.69333 154.619 3.56C154.246 3.24 153.819 3 153.339 2.84C152.873 2.68 152.353 2.6 151.779 2.6C150.846 2.6 150.039 2.83333 149.359 3.3C148.679 3.76667 148.159 4.44667 147.799 5.34C147.439 6.22 147.259 7.27333 147.259 8.5C147.259 9.72667 147.433 10.78 147.779 11.66C148.139 12.54 148.646 13.22 149.299 13.7C149.966 14.18 150.746 14.42 151.639 14.42C152.239 14.42 152.779 14.3467 153.259 14.2C153.753 14.04 154.193 13.8067 154.579 13.5C154.753 13.3133 154.873 13.1733 154.939 13.08C155.006 12.9733 155.073 12.84 155.139 12.68L155.939 10.74C155.979 10.6067 156.066 10.5533 156.199 10.58L156.979 10.68C157.113 10.7067 157.173 10.78 157.159 10.9L156.919 14.68C156.906 14.88 156.873 15.0333 156.819 15.14C156.779 15.2333 156.679 15.3133 156.519 15.38C156.373 15.4333 156.126 15.4933 155.779 15.56L155.299 15.64C154.939 15.76 154.446 15.8933 153.819 16.04C153.193 16.1867 152.479 16.26 151.679 16.26ZM160.367 16V1.02H163.747V16H160.367ZM160.367 7.36C161.407 7.45333 162.493 7.52667 163.627 7.58C164.76 7.63333 165.9 7.66 167.047 7.66C168.193 7.66 169.333 7.63333 170.467 7.58C171.6 7.52667 172.687 7.45333 173.727 7.36V8.96C172.687 9.05333 171.6 9.12667 170.467 9.18C169.333 9.23333 168.193 9.26 167.047 9.26C165.9 9.26 164.76 9.23333 163.627 9.18C162.493 9.12667 161.407 9.05333 160.367 8.96V7.36ZM170.367 16V1.02H173.727V16H170.367ZM168.447 16C168.327 16 168.267 15.9333 168.267 15.8V15.36C168.267 15.24 168.327 15.16 168.447 15.12L169.847 14.74C170.073 14.66 170.213 14.58 170.267 14.5C170.333 14.42 170.367 14.28 170.367 14.08V11.86H173.727V14.04C173.727 14.28 173.76 14.44 173.827 14.52C173.893 14.6 174.013 14.6667 174.187 14.72L175.687 15.12C175.807 15.1733 175.867 15.26 175.867 15.38V15.8C175.867 15.9333 175.8 16 175.667 16H168.447ZM158.467 16C158.333 16 158.267 15.9333 158.267 15.8V15.36C158.267 15.24 158.333 15.16 158.467 15.12L159.867 14.74C160.093 14.66 160.233 14.58 160.287 14.5C160.34 14.42 160.367 14.28 160.367 14.08V11.86H163.747V14.04C163.747 14.28 163.78 14.44 163.847 14.52C163.913 14.6 164.033 14.6667 164.207 14.72L165.707 15.12C165.827 15.1733 165.887 15.26 165.887 15.38V15.8C165.887 15.9333 165.82 16 165.687 16H158.467ZM168.267 1.22C168.267 1.08667 168.327 1.02 168.447 1.02H175.667C175.8 1.02 175.867 1.08667 175.867 1.22V1.64C175.867 1.76 175.807 1.84667 175.687 1.9L174.187 2.3C174.013 2.35333 173.893 2.42 173.827 2.5C173.76 2.58 173.727 2.74 173.727 2.98V5.16H170.367V2.94C170.367 2.74 170.333 2.6 170.267 2.52C170.213 2.42667 170.073 2.34667 169.847 2.28L168.447 1.9C168.327 1.86 168.267 1.78 168.267 1.66V1.22ZM158.267 1.22C158.267 1.08667 158.333 1.02 158.467 1.02H165.687C165.82 1.02 165.887 1.08667 165.887 1.22V1.64C165.887 1.76 165.827 1.84667 165.707 1.9L164.207 2.3C164.033 2.35333 163.913 2.42 163.847 2.5C163.78 2.58 163.747 2.74 163.747 2.98V5.16H160.367V2.94C160.367 2.74 160.34 2.6 160.287 2.52C160.233 2.42667 160.093 2.34667 159.867 2.28L158.467 1.9C158.333 1.86 158.267 1.78 158.267 1.66V1.22Z" fill="black"/>
</svg>
