<svg width="75" height="17" viewBox="0 0 75 17" fill="none" xmlns="http://www.w3.org/2000/svg">
<path d="M8.28 2.6C7.38667 2.6 6.60667 2.84 5.94 3.32C5.27333 3.8 4.76 4.48 4.4 5.36C4.05333 6.22667 3.88 7.27333 3.88 8.5C3.88 9.72667 4.06 10.78 4.42 11.66C4.78 12.54 5.28667 13.22 5.94 13.7C6.60667 14.18 7.38667 14.42 8.28 14.42C8.82667 14.42 9.34 14.3733 9.82 14.28C10.3133 14.1867 10.7533 14.0533 11.14 13.88V10.9C11.14 10.66 11.1067 10.5067 11.04 10.44C10.9733 10.3733 10.8467 10.32 10.66 10.28L8.62 9.92C8.5 9.90667 8.44 9.83333 8.44 9.7V8.98C8.44 8.84667 8.50667 8.78 8.64 8.78H15.5C15.6333 8.78 15.7 8.84667 15.7 8.98V9.7C15.7 9.83333 15.64 9.92 15.52 9.96L14.76 10.2C14.5333 10.2667 14.3867 10.3467 14.32 10.44C14.2667 10.5333 14.24 10.6733 14.24 10.86V13.22L14.38 14.4C14.3933 14.5333 14.3867 14.6267 14.36 14.68C14.3333 14.72 14.2667 14.7733 14.16 14.84C13.48 15.28 12.6333 15.6267 11.62 15.88C10.6067 16.1333 9.50667 16.26 8.32 16.26C6.72 16.26 5.30667 15.9333 4.08 15.28C2.86667 14.6267 1.92 13.72 1.24 12.56C0.573333 11.3867 0.24 10.0333 0.24 8.5C0.24 6.96667 0.573333 5.62 1.24 4.46C1.92 3.3 2.86667 2.39333 4.08 1.74C5.30667 1.08667 6.72 0.76 8.32 0.76C9.16 0.76 9.9 0.833333 10.54 0.979999C11.1933 1.11333 11.7067 1.24667 12.08 1.38L12.86 1.52C13.06 1.56 13.2067 1.61333 13.3 1.68C13.3933 1.73333 13.46 1.84 13.5 2C13.54 2.16 13.5667 2.41333 13.58 2.76L13.8 6.12C13.8133 6.24 13.7533 6.31333 13.62 6.34L12.84 6.44C12.7067 6.46667 12.62 6.41333 12.58 6.28L11.78 4.4C11.6867 4.18667 11.6 4.02667 11.52 3.92C11.4533 3.81333 11.3533 3.69333 11.22 3.56C10.8467 3.24 10.4067 3 9.9 2.84C9.40667 2.68 8.86667 2.6 8.28 2.6ZM21.1684 9.68V8.08H22.8284C23.6551 8.08 24.2951 7.84 24.7484 7.36C25.2018 6.86667 25.4284 6.16667 25.4284 5.26C25.4284 4.38 25.2084 3.72 24.7684 3.28C24.3284 2.82667 23.6818 2.6 22.8284 2.6H21.1684V1.02H22.8284C24.7884 1.02 26.2684 1.38 27.2684 2.1C28.2684 2.80667 28.7684 3.86 28.7684 5.26C28.7684 6.67333 28.2551 7.76667 27.2284 8.54C26.2151 9.3 24.7484 9.68 22.8284 9.68H21.1684ZM17.7884 16V1.02H21.1684V16H17.7884ZM27.2484 16C27.0484 16 26.8884 15.9867 26.7684 15.96C26.6484 15.92 26.5351 15.8333 26.4284 15.7C26.3218 15.5667 26.1684 15.3533 25.9684 15.06L23.1484 10.78C22.9351 10.4467 22.7484 10.2067 22.5884 10.06C22.4284 9.9 22.2818 9.8 22.1484 9.76C22.0151 9.70667 21.8684 9.68 21.7084 9.68L23.1284 9.02C23.6751 9.04667 24.1551 9.14667 24.5684 9.32C24.9818 9.48 25.3684 9.72 25.7284 10.04C26.1018 10.3467 26.4818 10.7533 26.8684 11.26L29.1084 14.1C29.2684 14.2867 29.4218 14.4333 29.5684 14.54C29.7151 14.6333 29.8751 14.7133 30.0484 14.78L30.9484 15.1C31.0684 15.1533 31.1284 15.2467 31.1284 15.38V15.8C31.1284 15.9333 31.0618 16 30.9284 16H27.2484ZM15.8884 16C15.7551 16 15.6884 15.9333 15.6884 15.8V15.36C15.6884 15.24 15.7551 15.16 15.8884 15.12L17.2884 14.74C17.5151 14.66 17.6551 14.58 17.7084 14.5C17.7618 14.42 17.7884 14.28 17.7884 14.08V11.86H21.1684V14.04C21.1684 14.28 21.2018 14.44 21.2684 14.52C21.3351 14.6 21.4551 14.6667 21.6284 14.72L23.1284 15.12C23.2484 15.1733 23.3084 15.26 23.3084 15.38V15.8C23.3084 15.9333 23.2418 16 23.1084 16H15.8884ZM15.6884 1.22C15.6884 1.08667 15.7551 1.02 15.8884 1.02H21.1684V5.16H17.7884V2.94C17.7884 2.74 17.7618 2.6 17.7084 2.52C17.6551 2.42667 17.5151 2.34667 17.2884 2.28L15.8884 1.9C15.7551 1.86 15.6884 1.78 15.6884 1.66V1.22ZM30.3655 16C30.2321 16 30.1655 15.9333 30.1655 15.8V15.36C30.1655 15.2267 30.2255 15.14 30.3455 15.1L31.1655 14.86C31.3921 14.78 31.5655 14.68 31.6855 14.56C31.8055 14.44 31.9055 14.2933 31.9855 14.12L37.5055 1.36C37.5455 1.24 37.6321 1.17333 37.7655 1.16L39.2055 0.84C39.3388 0.813333 39.4188 0.866666 39.4455 0.999999L39.7255 2.14L45.3055 14.1C45.3988 14.3 45.5121 14.46 45.6455 14.58C45.7788 14.7 45.9321 14.7867 46.1055 14.84L46.8855 15.1C47.0055 15.1533 47.0655 15.2467 47.0655 15.38V15.8C47.0655 15.9333 46.9988 16 46.8655 16H39.6455C39.5255 16 39.4655 15.9333 39.4655 15.8V15.36C39.4655 15.2533 39.5255 15.1733 39.6455 15.12L40.7855 14.84C41.1855 14.7333 41.4188 14.5933 41.4855 14.42C41.5521 14.2467 41.5121 14 41.3655 13.68L36.8855 3.62L38.7855 2.48L34.1255 13.62C33.9655 14.0067 33.9321 14.28 34.0255 14.44C34.1321 14.6 34.3521 14.72 34.6855 14.8L35.9855 15.12C36.1188 15.16 36.1855 15.2467 36.1855 15.38V15.8C36.1855 15.9333 36.1188 16 35.9855 16H30.3655ZM34.3855 9.86C35.6655 9.94 36.9721 9.98 38.3055 9.98C39.6521 9.96667 40.9588 9.92667 42.2255 9.86V11.44C40.9588 11.52 39.6521 11.56 38.3055 11.56C36.9721 11.56 35.6655 11.5267 34.3855 11.46V9.86ZM53.8552 16.26C52.2552 16.26 50.8418 15.9333 49.6152 15.28C48.4018 14.6267 47.4552 13.72 46.7752 12.56C46.1085 11.3867 45.7752 10.0333 45.7752 8.5C45.7752 6.96667 46.1085 5.62 46.7752 4.46C47.4552 3.3 48.4018 2.39333 49.6152 1.74C50.8418 1.08667 52.2552 0.76 53.8552 0.76C54.6552 0.76 55.3685 0.833333 55.9952 0.979999C56.6218 1.12667 57.1152 1.26 57.4752 1.38L58.3952 1.54C58.5952 1.56667 58.7418 1.61333 58.8352 1.68C58.9285 1.73333 58.9952 1.84 59.0352 2C59.0752 2.16 59.1018 2.41333 59.1152 2.76L59.3352 6.12C59.3485 6.24 59.2885 6.31333 59.1552 6.34L58.3752 6.44C58.2418 6.46667 58.1552 6.41333 58.1152 6.28L57.3352 4.4C57.2418 4.18667 57.1618 4.02667 57.0952 3.92C57.0285 3.81333 56.9285 3.69333 56.7952 3.56C56.4218 3.24 55.9952 3 55.5152 2.84C55.0485 2.68 54.5285 2.6 53.9552 2.6C53.0218 2.6 52.2152 2.83333 51.5352 3.3C50.8552 3.76667 50.3352 4.44667 49.9752 5.34C49.6152 6.22 49.4352 7.27333 49.4352 8.5C49.4352 9.72667 49.6085 10.78 49.9552 11.66C50.3152 12.54 50.8218 13.22 51.4752 13.7C52.1418 14.18 52.9218 14.42 53.8152 14.42C54.4152 14.42 54.9552 14.3467 55.4352 14.2C55.9285 14.04 56.3685 13.8067 56.7552 13.5C56.9285 13.3133 57.0485 13.1733 57.1152 13.08C57.1818 12.9733 57.2485 12.84 57.3152 12.68L58.1152 10.74C58.1552 10.6067 58.2418 10.5533 58.3752 10.58L59.1552 10.68C59.2885 10.7067 59.3485 10.78 59.3352 10.9L59.0952 14.68C59.0818 14.88 59.0485 15.0333 58.9952 15.14C58.9552 15.2333 58.8552 15.3133 58.6952 15.38C58.5485 15.4333 58.3018 15.4933 57.9552 15.56L57.4752 15.64C57.1152 15.76 56.6218 15.8933 55.9952 16.04C55.3685 16.1867 54.6552 16.26 53.8552 16.26ZM62.5423 16V1.02H65.9223V13.8C65.9223 14.04 65.969 14.2067 66.0623 14.3C66.1557 14.38 66.3023 14.42 66.5023 14.42H71.0223C71.2623 14.42 71.449 14.38 71.5823 14.3C71.729 14.22 71.8623 14.1 71.9823 13.94L73.2223 12.08C73.2757 11.9733 73.3757 11.94 73.5223 11.98L74.1223 12.14C74.2423 12.18 74.2957 12.2667 74.2823 12.4L73.8023 15.46C73.7757 15.6467 73.729 15.7933 73.6623 15.9C73.609 15.9933 73.5023 16.0467 73.3423 16.06C73.1957 16.0733 72.949 16.0733 72.6023 16.06L71.3823 16H62.5423ZM71.3823 10.98C71.2623 10.98 71.169 10.92 71.1023 10.8L70.7223 9.8C70.629 9.58667 70.509 9.44667 70.3623 9.38C70.229 9.3 70.0623 9.26 69.8623 9.26H65.9223V7.66H69.8223C70.0623 7.66 70.249 7.62 70.3823 7.54C70.5157 7.44667 70.6223 7.31333 70.7023 7.14L71.1023 6.26C71.169 6.14 71.269 6.08 71.4023 6.08H71.9423C72.0757 6.08 72.1423 6.14667 72.1423 6.28V10.8C72.1423 10.92 72.0757 10.98 71.9423 10.98H71.3823ZM73.0823 4.96C72.9623 4.98667 72.8623 4.94667 72.7823 4.84L71.8823 3.14C71.7623 2.94 71.629 2.8 71.4823 2.72C71.349 2.64 71.189 2.6 71.0023 2.6H65.9223V1.02H71.4623L73.1023 0.859999C73.3157 0.846666 73.4623 0.859999 73.5423 0.899999C73.6357 0.926666 73.6957 1.01333 73.7223 1.16C73.7623 1.30667 73.7823 1.56 73.7823 1.92L73.8623 4.64C73.8623 4.77333 73.7957 4.85333 73.6623 4.88L73.0823 4.96ZM60.6423 16C60.509 16 60.4423 15.9333 60.4423 15.8V15.36C60.4423 15.24 60.509 15.16 60.6423 15.12L62.0423 14.74C62.269 14.66 62.409 14.58 62.4623 14.5C62.5157 14.42 62.5423 14.28 62.5423 14.08V11.86H65.9223V16H60.6423ZM60.4423 1.22C60.4423 1.08667 60.509 1.02 60.6423 1.02H65.9223V5.16H62.5423V2.94C62.5423 2.74 62.5157 2.6 62.4623 2.52C62.409 2.42667 62.269 2.34667 62.0423 2.28L60.6423 1.9C60.509 1.86 60.4423 1.78 60.4423 1.66V1.22Z" fill="#3481C9"/>
</svg>
